<svg xmlns="http://www.w3.org/2000/svg" width="1500" height="800" viewBox="0 0 1500 800"><rect width="100%" height="100%" fill="white"/>
<text x="750" y="49.56" text-anchor="middle" font-family="Arial,sans-serif" font-size="34" fill="#17212b">Arquitectura propuesta para producción</text>
<rect x="60" y="130" width="310" height="120" rx="12" fill="#edf3f8" stroke="#425466" stroke-width="2"/>
<text x="215.0" y="181.5" text-anchor="middle" font-family="Arial,sans-serif" font-size="25" fill="#17212b">Navegador</text>
<text x="215.0" y="215.5" text-anchor="middle" font-family="Arial,sans-serif" font-size="25" fill="#17212b">React 19 + Vite 8</text>
<rect x="580" y="130" width="340" height="120" rx="12" fill="#edf3f8" stroke="#425466" stroke-width="2"/>
<text x="750.0" y="181.5" text-anchor="middle" font-family="Arial,sans-serif" font-size="25" fill="#17212b">Cloudflare Pages</text>
<text x="750.0" y="215.5" text-anchor="middle" font-family="Arial,sans-serif" font-size="25" fill="#17212b">HTML CSS JS por HTTPS</text>
<polyline points="370,190 580,190" fill="none" stroke="#425466" stroke-width="3"/>
<polygon points="580,190 567.3937405670625,196.08951747755722 567.3937405670625,183.91048252244278" fill="#425466"/>
<text x="470" y="167.48" text-anchor="middle" font-family="Arial,sans-serif" font-size="22" fill="#17212b">HTTPS</text>
<rect x="580" y="370" width="340" height="120" rx="12" fill="#edf3f8" stroke="#425466" stroke-width="2"/>
<text x="750.0" y="421.5" text-anchor="middle" font-family="Arial,sans-serif" font-size="25" fill="#17212b">API Node.js + Express</text>
<text x="750.0" y="455.5" text-anchor="middle" font-family="Arial,sans-serif" font-size="25" fill="#17212b">Render PaaS</text>
<polyline points="215,250 215,430 580,430" fill="none" stroke="#425466" stroke-width="3"/>
<polygon points="580,430 567.3937405670625,436.08951747755725 567.3937405670625,423.91048252244275" fill="#425466"/>
<text x="370" y="407.48" text-anchor="middle" font-family="Arial,sans-serif" font-size="22" fill="#17212b">REST JSON / HTTPS</text>
<rect x="1120" y="370" width="320" height="120" rx="12" fill="#edf3f8" stroke="#425466" stroke-width="2"/>
<text x="1280.0" y="421.5" text-anchor="middle" font-family="Arial,sans-serif" font-size="25" fill="#17212b">PostgreSQL gestionado</text>
<text x="1280.0" y="455.5" text-anchor="middle" font-family="Arial,sans-serif" font-size="25" fill="#17212b">Render DBaaS</text>
<polyline points="920,430 1120,430" fill="none" stroke="#425466" stroke-width="3"/>
<polygon points="1120,430 1107.3937405670624,436.08951747755725 1107.3937405670624,423.91048252244275" fill="#425466"/>
<text x="1020" y="407.48" text-anchor="middle" font-family="Arial,sans-serif" font-size="22" fill="#17212b">SQL / TLS</text>
<rect x="1120" y="620" width="320" height="100" rx="12" fill="#edf3f8" stroke="#425466" stroke-width="2"/>
<text x="1280.0" y="661.5" text-anchor="middle" font-family="Arial,sans-serif" font-size="25" fill="#17212b">Respaldo cifrado</text>
<text x="1280.0" y="695.5" text-anchor="middle" font-family="Arial,sans-serif" font-size="25" fill="#17212b">Almacenamiento externo</text>
<polyline points="1280,490 1280,620" fill="none" stroke="#425466" stroke-width="3"/>
<polygon points="1280,620 1273.9104825224429,607.3937405670625 1286.0895174775571,607.3937405670625" fill="#425466"/>
<text x="1350" y="562.48" text-anchor="middle" font-family="Arial,sans-serif" font-size="22" fill="#17212b">pg_dump</text>
<rect x="60" y="620" width="360" height="100" rx="12" fill="#edf3f8" stroke="#425466" stroke-width="2"/>
<text x="240.0" y="661.5" text-anchor="middle" font-family="Arial,sans-serif" font-size="25" fill="#17212b">GitHub</text>
<text x="240.0" y="695.5" text-anchor="middle" font-family="Arial,sans-serif" font-size="25" fill="#17212b">Código y revisión por PR</text>
<polyline points="420,670 750,670 750,490" fill="none" stroke="#425466" stroke-width="3"/>
<polygon points="750,490 756.0895174775573,502.60625943293746 743.9104825224427,502.60625943293746" fill="#425466"/>
<text x="615" y="712.48" text-anchor="middle" font-family="Arial,sans-serif" font-size="22" fill="#17212b">despliegue de API</text>
<rect x="1120" y="130" width="320" height="120" rx="12" fill="#edf3f8" stroke="#425466" stroke-width="2"/>
<text x="1280.0" y="181.5" text-anchor="middle" font-family="Arial,sans-serif" font-size="25" fill="#17212b">DNS Cloudflare</text>
<text x="1280.0" y="215.5" text-anchor="middle" font-family="Arial,sans-serif" font-size="25" fill="#17212b">app / api / staging</text>
<polyline points="215,130 215,82 1280,82 1280,130" fill="none" stroke="#425466" stroke-width="3"/>
<polygon points="1280,130 1273.9104825224429,117.39374056706252 1286.0895174775571,117.39374056706252" fill="#425466"/>
<text x="750" y="107.48" text-anchor="middle" font-family="Arial,sans-serif" font-size="22" fill="#17212b">consulta de nombres</text>
<text x="750" y="768.5" text-anchor="middle" font-family="Arial,sans-serif" font-size="25" fill="#17212b">Propuesta: API, base de datos y respaldos aún no implementados.</text>
</svg>